<?xml version="1.0" encoding="UTF-8"?>
<svg xmlns="http://www.w3.org/2000/svg" xmlns:xlink="http://www.w3.org/1999/xlink" width="1000pt" height="1170pt" viewBox="0 0 1000 1170" version="1.1">
<g id="surface1">
<path d="M 0 521.910156 L 0 7.078125 L 154.742188 7.078125 L 188.90625 326.542969 L 189.898438 326.542969 L 228.027344 7.078125 L 375.589844 7.078125 L 376.082031 521.910156 L 275.5625 521.910156 L 275.5625 175.148438 L 237.433594 521.910156 L 141.867188 521.910156 L 103.242188 175.148438 L 103.242188 521.910156 Z M 0 521.910156 "/>
<path d="M 400.84375 385.429688 C 400.84375 322.078125 424.363281 272.792969 471.402344 237.578125 C 446.480469 197.980469 434.019531 160.492188 434.019531 125.105469 C 434.019531 87.53125 444.003906 57.289062 463.976562 34.371094 C 483.949219 11.457031 509.121094 0 539.488281 0 C 574.480469 0 602.539062 9.773438 623.671875 29.316406 C 644.960938 48.695312 655.609375 78.941406 655.609375 120.050781 C 655.609375 135.722656 654.039062 149.875 650.90625 162.511719 C 647.933594 174.980469 642.734375 187.027344 635.304688 198.65625 C 628.046875 210.28125 621.605469 219.378906 615.996094 225.949219 C 610.546875 232.523438 602.296875 242.042969 591.234375 254.511719 L 627.136719 323.761719 C 635.71875 298.992188 640.011719 280.460938 640.011719 268.160156 L 729.390625 268.160156 C 728.234375 297.984375 723.113281 326.878906 714.039062 354.847656 C 704.960938 382.820312 693.488281 404.808594 679.625 420.816406 L 734.09375 521.910156 L 624.410156 521.910156 L 607.824219 489.558594 C 595.609375 501.523438 580.503906 510.703125 562.515625 517.109375 C 544.03125 523.34375 526.863281 526.546875 511.019531 526.714844 C 496.328125 526.714844 483.039062 524.605469 471.15625 520.394531 C 459.273438 516.015625 449.449219 510.035156 441.695312 502.449219 C 434.101562 494.699219 427.414062 486.273438 421.640625 477.175781 C 416.027344 468.078125 411.816406 457.96875 409.011719 446.847656 C 406.207031 435.726562 404.144531 425.28125 402.824219 415.507812 C 401.503906 405.566406 400.84375 395.539062 400.84375 385.429688 Z M 503.339844 343.980469 C 497.402344 354.089844 494.429688 365.464844 494.429688 378.101562 C 494.429688 390.570312 497.484375 401.015625 503.589844 409.441406 C 509.695312 417.867188 517.371094 422.078125 526.613281 422.078125 C 540.808594 422.078125 553.851562 416.769531 565.734375 406.15625 L 521.171875 323.761719 C 515.390625 327.132812 509.449219 333.871094 503.339844 343.980469 Z M 519.191406 110.699219 C 519.191406 122.664062 521.996094 134.289062 527.605469 145.578125 L 542.214844 174.140625 C 547.824219 169.085938 554.015625 160.742188 560.78125 149.117188 C 567.550781 137.324219 570.933594 125.445312 570.933594 113.480469 C 570.933594 94.105469 562.019531 84.5 544.195312 84.667969 C 527.523438 84.5 519.191406 93.175781 519.191406 110.699219 Z M 519.191406 110.699219 "/>
<path d="M 739.289062 266.894531 C 739.289062 263.695312 739.289062 261.335938 739.289062 259.820312 C 739.289062 258.808594 739.289062 257.207031 739.289062 255.015625 C 739.289062 229.910156 739.289062 211.375 739.289062 199.414062 C 739.453125 187.28125 740.035156 171.273438 741.023438 151.390625 C 742.015625 131.511719 743.664062 116.765625 745.976562 107.164062 C 748.289062 97.558594 751.503906 85.847656 755.636719 72.03125 C 759.761719 58.214844 765.039062 48.105469 771.480469 41.703125 C 777.914062 35.300781 785.753906 28.558594 795 21.484375 C 804.238281 14.40625 815.300781 9.605469 828.175781 7.078125 C 841.050781 4.550781 855.820312 3.285156 872.496094 3.285156 C 893.949219 3.285156 912.433594 6.148438 927.949219 11.878906 C 943.46875 17.4375 955.679688 24.769531 964.59375 33.867188 C 973.511719 42.964844 980.523438 54.59375 985.640625 68.746094 C 990.921875 82.898438 994.226562 96.632812 995.546875 109.941406 C 997.03125 123.253906 997.769531 138.671875 997.769531 156.195312 L 997.769531 193.347656 L 896.753906 193.347656 L 896.753906 152.402344 C 896.753906 144.316406 896.589844 137.914062 896.261719 133.195312 C 896.09375 128.476562 895.355469 122.578125 894.035156 115.503906 C 892.878906 108.425781 890.648438 103.117188 887.351562 99.578125 C 884.210938 96.042969 880.171875 94.273438 875.214844 94.273438 C 862.011719 94.273438 854.089844 103.117188 851.449219 120.808594 C 848.804688 138.503906 847.484375 184.839844 847.484375 259.820312 C 847.484375 335.808594 848.890625 383.15625 851.695312 401.859375 C 854.5 420.394531 862.339844 429.660156 875.214844 429.660156 C 883.800781 429.660156 889.90625 423.089844 893.539062 409.945312 C 897.335938 396.804688 899.230469 374.5625 899.230469 343.222656 L 899.230469 304.554688 L 1000 304.554688 L 1000 336.398438 C 1000 462.9375 957.25 526.210938 871.75 526.210938 C 871.75 526.210938 871.671875 526.210938 871.503906 526.210938 C 852.683594 526.210938 836.265625 523.933594 822.234375 519.386719 C 808.371094 514.835938 796.730469 509.523438 787.324219 503.460938 C 777.914062 497.226562 770.074219 487.117188 763.804688 473.132812 C 757.53125 459.148438 752.746094 446.847656 749.445312 436.230469 C 746.304688 425.617188 743.828125 409.105469 742.015625 386.695312 C 740.363281 364.285156 739.453125 346.003906 739.289062 331.847656 C 739.289062 317.695312 739.289062 296.042969 739.289062 266.894531 Z M 739.289062 266.894531 "/>
<path d="M 0 778.675781 L 0 770.691406 L 55.167969 771.261719 L 55.167969 784.234375 C 55.167969 791.648438 56.425781 797.734375 58.9375 802.484375 C 61.453125 807.144531 65.128906 809.46875 69.972656 809.46875 C 75.371094 809.46875 79.609375 806.90625 82.679688 801.769531 C 84.914062 798.066406 86.035156 794.074219 86.035156 789.796875 C 86.035156 788.179688 85.847656 786.515625 85.476562 784.804688 C 84.824219 779.863281 83.566406 775.394531 81.703125 771.40625 C 79.933594 767.410156 77.375 763.753906 74.023438 760.425781 C 70.761719 757.003906 68.296875 754.675781 66.621094 753.441406 C 65.035156 752.203125 62.570312 750.253906 59.21875 747.59375 C 20.019531 718.890625 0.28125 686.429688 0 650.214844 C 0 640.328125 0.464844 631.96875 1.398438 625.125 C 2.328125 618.28125 4.050781 612.433594 6.5625 607.589844 C 9.078125 602.738281 11.265625 599.078125 13.128906 596.609375 C 15.082031 594.140625 18.34375 590.671875 22.90625 586.199219 C 33.984375 574.320312 49.675781 568.378906 69.972656 568.378906 C 81.425781 568.378906 91.339844 569.804688 99.71875 572.65625 C 108.101562 575.511719 114.757812 579.359375 119.691406 584.203125 C 124.628906 589.054688 128.539062 595.28125 131.425781 602.886719 C 134.3125 610.484375 136.21875 618.140625 137.152344 625.835938 C 138.082031 633.535156 138.546875 642.613281 138.546875 653.070312 L 84.496094 653.070312 L 84.496094 641.664062 C 84.496094 628.261719 79.886719 621.464844 70.671875 621.273438 C 70.484375 621.273438 70.25 621.273438 69.972656 621.273438 C 65.875 621.273438 62.757812 622.941406 60.613281 626.265625 C 58.378906 629.304688 57.261719 633.109375 57.261719 637.671875 C 57.261719 638.523438 57.261719 639.335938 57.261719 640.09375 C 57.820312 648.078125 59.871094 655.394531 63.40625 662.050781 C 67.039062 668.609375 71.460938 674.308594 76.675781 679.160156 C 81.890625 683.910156 87.710938 688.664062 94.132812 693.414062 C 100.558594 698.074219 106.84375 703.015625 112.988281 708.246094 C 119.132812 713.375 124.71875 719.03125 129.75 725.210938 C 134.777344 731.296875 138.828125 738.851562 141.898438 747.878906 C 144.878906 756.53125 146.367188 766.175781 146.367188 776.820312 C 146.367188 777.199219 146.367188 777.628906 146.367188 778.105469 C 145.996094 794.550781 144.179688 808.328125 140.921875 819.449219 C 137.664062 830.476562 132.636719 839.175781 125.839844 845.539062 C 119.039062 851.910156 110.894531 856.476562 101.398438 859.230469 C 91.898438 861.984375 80.214844 863.363281 66.339844 863.363281 C 43.4375 863.363281 26.628906 856.855469 15.921875 843.828125 C 5.308594 830.808594 0 809.089844 0 778.675781 Z M 0 778.675781 "/>
<path d="M 142.597656 860.941406 L 196.648438 570.519531 L 265.921875 570.519531 L 318.15625 860.941406 L 256.703125 860.941406 L 250.28125 812.324219 L 210.753906 812.324219 L 204.191406 860.941406 Z M 217.039062 750.019531 L 243.714844 750.019531 L 231.003906 632.109375 L 230.445312 632.109375 Z M 217.039062 750.019531 "/>
<path d="M 313.828125 860.941406 L 367.878906 570.519531 L 437.152344 570.519531 L 489.386719 860.941406 L 427.933594 860.941406 L 421.507812 812.324219 L 381.984375 812.324219 L 375.417969 860.941406 Z M 388.269531 750.019531 L 414.945312 750.019531 L 402.234375 632.109375 L 401.675781 632.109375 Z M 388.269531 750.019531 "/>
<path d="M 465.085938 637.386719 L 465.085938 570.519531 L 604.46875 570.519531 L 604.46875 637.386719 L 564.105469 637.386719 L 564.105469 860.941406 L 505.445312 860.941406 L 505.445312 637.386719 Z M 465.085938 637.386719 "/>
<path d="M 606.285156 717.085938 C 606.285156 715.28125 606.285156 713.945312 606.285156 713.089844 C 606.285156 712.519531 606.285156 711.621094 606.285156 710.386719 C 606.285156 696.21875 606.285156 685.765625 606.285156 679.015625 C 606.378906 672.175781 606.703125 663.144531 607.265625 651.929688 C 607.820312 640.710938 608.75 632.394531 610.054688 626.980469 C 611.359375 621.558594 613.175781 614.953125 615.503906 607.160156 C 617.828125 599.363281 620.808594 593.664062 624.441406 590.050781 C 628.074219 586.441406 632.496094 582.636719 637.710938 578.644531 C 642.925781 574.65625 649.160156 571.945312 656.425781 570.519531 C 663.683594 569.09375 672.019531 568.378906 681.425781 568.378906 C 693.53125 568.378906 703.953125 569.996094 712.710938 573.230469 C 721.460938 576.363281 728.351562 580.5 733.378906 585.628906 C 738.410156 590.765625 742.363281 597.320312 745.25 605.304688 C 748.230469 613.289062 750.09375 621.035156 750.839844 628.546875 C 751.675781 636.054688 752.09375 644.75 752.09375 654.636719 L 752.09375 675.59375 L 695.109375 675.59375 L 695.109375 652.5 C 695.109375 647.933594 695.019531 644.324219 694.828125 641.664062 C 694.738281 639 694.320312 635.675781 693.574219 631.683594 C 692.925781 627.691406 691.664062 624.695312 689.804688 622.699219 C 688.035156 620.703125 685.753906 619.703125 682.960938 619.703125 C 675.511719 619.703125 671.046875 624.695312 669.554688 634.675781 C 668.066406 644.65625 667.320312 670.796875 667.320312 713.089844 C 667.320312 755.960938 668.109375 782.664062 669.695312 793.21875 C 671.273438 803.675781 675.699219 808.898438 682.960938 808.898438 C 687.804688 808.898438 691.25 805.195312 693.296875 797.78125 C 695.441406 790.363281 696.511719 777.820312 696.511719 760.140625 L 696.511719 738.324219 L 753.351562 738.324219 L 753.351562 756.289062 C 753.351562 827.675781 729.234375 863.363281 681.003906 863.363281 C 681.003906 863.363281 680.960938 863.363281 680.863281 863.363281 C 670.25 863.363281 660.984375 862.078125 653.074219 859.515625 C 645.25 856.949219 638.683594 853.953125 633.378906 850.53125 C 628.074219 847.015625 623.648438 841.316406 620.109375 833.425781 C 616.574219 825.535156 613.875 818.59375 612.011719 812.609375 C 610.238281 806.621094 608.84375 797.304688 607.820312 784.664062 C 606.890625 772.019531 606.378906 761.710938 606.285156 753.726562 C 606.285156 745.738281 606.285156 733.523438 606.285156 717.085938 Z M 606.285156 717.085938 "/>
<path d="M 768.015625 860.941406 L 768.015625 570.519531 L 826.816406 570.519531 L 826.816406 673.738281 L 855.304688 673.738281 L 855.304688 570.519531 L 914.386719 570.519531 L 914.386719 860.941406 L 855.304688 860.941406 L 855.304688 740.894531 L 826.816406 740.894531 L 826.816406 860.941406 Z M 768.015625 860.941406 "/>
<path d="M 933.941406 860.941406 L 933.941406 570.519531 L 1000 570.519531 L 1000 860.941406 Z M 933.941406 860.941406 "/>
<path d="M 0 1093.574219 L 0 1086.414062 L 49.460938 1086.925781 L 49.460938 1098.558594 C 49.460938 1105.203125 50.589844 1110.660156 52.84375 1114.921875 C 55.097656 1119.09375 58.394531 1121.183594 62.734375 1121.183594 C 67.578125 1121.183594 71.375 1118.886719 74.128906 1114.28125 C 76.132812 1110.960938 77.136719 1107.378906 77.136719 1103.546875 C 77.136719 1102.09375 76.96875 1100.605469 76.632812 1099.070312 C 76.050781 1094.640625 74.921875 1090.636719 73.253906 1087.054688 C 71.667969 1083.476562 69.371094 1080.195312 66.367188 1077.210938 C 63.445312 1074.144531 61.230469 1072.054688 59.730469 1070.949219 C 58.308594 1069.839844 56.097656 1068.09375 53.09375 1065.710938 C 17.949219 1039.96875 0.25 1010.871094 0 978.398438 C 0 969.539062 0.417969 962.039062 1.253906 955.90625 C 2.085938 949.769531 3.632812 944.53125 5.886719 940.179688 C 8.140625 935.835938 10.101562 932.554688 11.769531 930.339844 C 13.523438 928.125 16.445312 925.015625 20.535156 921.011719 C 30.46875 910.355469 44.535156 905.03125 62.734375 905.03125 C 73.003906 905.03125 81.894531 906.308594 89.40625 908.863281 C 96.917969 911.421875 102.886719 914.875 107.3125 919.21875 C 111.738281 923.566406 115.242188 929.144531 117.832031 935.964844 C 120.417969 942.78125 122.128906 949.640625 122.964844 956.546875 C 123.800781 963.445312 124.21875 971.585938 124.21875 980.960938 L 75.757812 980.960938 L 75.757812 970.734375 C 75.757812 958.714844 71.625 952.625 63.359375 952.453125 C 63.195312 952.453125 62.984375 952.453125 62.734375 952.453125 C 59.0625 952.453125 56.265625 953.945312 54.34375 956.929688 C 52.339844 959.65625 51.339844 963.066406 51.339844 967.15625 C 51.339844 967.921875 51.339844 968.644531 51.339844 969.324219 C 51.839844 976.484375 53.675781 983.046875 56.847656 989.011719 C 60.105469 994.890625 64.070312 1000.003906 68.746094 1004.351562 C 73.421875 1008.609375 78.636719 1012.875 84.398438 1017.136719 C 90.15625 1021.308594 95.792969 1025.738281 101.300781 1030.429688 C 106.8125 1035.03125 111.820312 1040.101562 116.328125 1045.640625 C 120.835938 1051.09375 124.46875 1057.871094 127.222656 1065.964844 C 129.894531 1073.71875 131.230469 1082.371094 131.230469 1091.910156 C 131.230469 1092.253906 131.230469 1092.636719 131.230469 1093.066406 C 130.894531 1107.804688 129.269531 1120.160156 126.347656 1130.136719 C 123.425781 1140.019531 118.917969 1147.816406 112.824219 1153.523438 C 106.726562 1159.234375 99.425781 1163.324219 90.910156 1165.796875 C 82.394531 1168.269531 71.917969 1169.503906 59.480469 1169.503906 C 38.941406 1169.503906 23.875 1163.664062 14.273438 1151.988281 C 4.757812 1140.316406 0 1120.84375 0 1093.574219 Z M 0 1093.574219 "/>
<path d="M 142.125 1167.328125 L 142.125 906.945312 L 213.246094 906.945312 C 237.375 906.945312 254.695312 913.550781 265.214844 926.761719 C 275.734375 939.886719 280.992188 960.636719 280.992188 989.011719 C 280.992188 1018.496094 275.609375 1039.628906 264.839844 1052.414062 C 254.152344 1065.109375 236.246094 1071.460938 211.121094 1071.460938 L 199.472656 1071.460938 L 199.472656 1167.328125 Z M 199.472656 1027.871094 L 207.863281 1027.871094 C 213.625 1027.871094 217.671875 1024.84375 220.011719 1018.796875 C 222.347656 1012.660156 223.515625 1003.246094 223.515625 990.546875 C 223.515625 976.910156 222.347656 967.15625 220.011719 961.273438 C 217.839844 955.226562 213.789062 952.199219 207.863281 952.199219 L 199.472656 952.199219 Z M 199.472656 1027.871094 "/>
<path d="M 293.386719 1167.328125 L 293.386719 906.945312 L 409.214844 906.945312 L 409.214844 961.273438 L 350.738281 961.273438 L 350.738281 1006.394531 L 404.832031 1006.394531 L 404.832031 1059.699219 L 350.738281 1059.699219 L 350.738281 1111.855469 L 410.84375 1111.855469 L 410.84375 1167.328125 Z M 293.386719 1167.328125 "/>
<path d="M 424.867188 1167.328125 L 424.867188 906.945312 L 478.964844 906.945312 L 517.40625 1050.75 L 517.40625 906.945312 L 569.621094 906.945312 L 569.621094 1167.328125 L 514.148438 1167.328125 L 477.085938 1030.683594 L 477.085938 1167.328125 Z M 424.867188 1167.328125 "/>
<path d="M 584.144531 1038.355469 C 584.144531 1036.734375 584.144531 1035.539062 584.144531 1034.773438 C 584.144531 1034.265625 584.144531 1033.453125 584.144531 1032.34375 C 584.144531 1019.648438 584.144531 1010.273438 584.144531 1004.226562 C 584.230469 998.089844 584.523438 989.988281 585.023438 979.933594 C 585.523438 969.878906 586.359375 962.425781 587.53125 957.566406 C 588.695312 952.710938 590.324219 946.785156 592.410156 939.800781 C 594.5 932.808594 597.171875 927.699219 600.425781 924.460938 C 603.679688 921.21875 607.644531 917.816406 612.320312 914.234375 C 616.996094 910.65625 622.589844 908.226562 629.101562 906.945312 C 635.609375 905.671875 643.085938 905.03125 651.515625 905.03125 C 662.363281 905.03125 671.714844 906.480469 679.566406 909.375 C 687.410156 912.191406 693.589844 915.894531 698.09375 920.496094 C 702.605469 925.101562 706.148438 930.980469 708.738281 938.136719 C 711.410156 945.296875 713.078125 952.238281 713.75 958.976562 C 714.5 965.703125 714.875 973.5 714.875 982.363281 L 714.875 1001.15625 L 663.785156 1001.15625 L 663.785156 980.449219 C 663.785156 976.355469 663.703125 973.121094 663.535156 970.734375 C 663.453125 968.34375 663.074219 965.363281 662.410156 961.785156 C 661.824219 958.203125 660.699219 955.519531 659.03125 953.730469 C 657.441406 951.941406 655.394531 951.046875 652.894531 951.046875 C 646.214844 951.046875 642.203125 955.519531 640.871094 964.46875 C 639.535156 973.414062 638.871094 996.851562 638.871094 1034.773438 C 638.871094 1073.203125 639.578125 1097.15625 640.996094 1106.613281 C 642.414062 1115.984375 646.378906 1120.675781 652.894531 1120.675781 C 657.234375 1120.675781 660.320312 1117.351562 662.160156 1110.703125 C 664.078125 1104.054688 665.039062 1092.804688 665.039062 1076.953125 L 665.039062 1057.398438 L 716.003906 1057.398438 L 716.003906 1073.503906 C 716.003906 1137.503906 694.378906 1169.503906 651.140625 1169.503906 C 651.140625 1169.503906 651.101562 1169.503906 651.015625 1169.503906 C 641.5 1169.503906 633.191406 1168.355469 626.09375 1166.050781 C 619.085938 1163.75 613.199219 1161.066406 608.441406 1158 C 603.679688 1154.84375 599.714844 1149.734375 596.546875 1142.660156 C 593.371094 1135.585938 590.949219 1129.363281 589.28125 1123.996094 C 587.695312 1118.628906 586.445312 1110.273438 585.523438 1098.945312 C 584.691406 1087.609375 584.230469 1078.363281 584.144531 1071.203125 C 584.144531 1064.046875 584.144531 1053.09375 584.144531 1038.355469 Z M 584.144531 1038.355469 "/>
<path d="M 729.148438 1167.328125 L 729.148438 906.945312 L 844.980469 906.945312 L 844.980469 961.273438 L 786.5 961.273438 L 786.5 1006.394531 L 840.59375 1006.394531 L 840.59375 1059.699219 L 786.5 1059.699219 L 786.5 1111.855469 L 846.605469 1111.855469 L 846.605469 1167.328125 Z M 729.148438 1167.328125 "/>
<path d="M 860.628906 1167.328125 L 860.628906 906.945312 L 931.253906 906.945312 C 955.964844 906.945312 973.496094 912.613281 983.84375 923.949219 C 994.199219 935.195312 999.375 954.671875 999.375 982.363281 C 999.375 999.835938 996.828125 1012.914062 991.734375 1021.609375 C 986.726562 1030.214844 976.960938 1035.796875 962.433594 1038.355469 C 977.046875 1041.675781 986.933594 1048.023438 992.109375 1057.398438 C 997.371094 1066.773438 1000 1080.238281 1000 1097.789062 L 1000 1167.328125 L 938.894531 1167.328125 L 938.894531 1096.898438 C 938.894531 1083.859375 937.554688 1074.910156 934.886719 1070.054688 C 932.300781 1065.109375 927.289062 1062.640625 919.859375 1062.640625 L 917.980469 1062.640625 L 917.980469 1167.328125 Z M 917.980469 1016.878906 L 925.871094 1016.878906 C 931.796875 1016.878906 935.929688 1014.488281 938.265625 1009.71875 C 940.605469 1005.289062 941.773438 997.066406 941.773438 985.050781 C 941.773438 972.179688 940.644531 963.488281 938.390625 958.976562 C 936.140625 954.453125 931.964844 952.199219 925.871094 952.199219 L 917.980469 952.199219 Z M 917.980469 1016.878906 "/>
</g>
</svg>
