<svg width="200" height="234" viewBox="0 0 200 234" fill="none" xmlns="http://www.w3.org/2000/svg">
    <path d="M0 104.382V1.41535H30.9483L37.7816 65.3084H37.9797L45.6054 1.41535H75.1176L75.2166 104.382H55.1127V35.03L47.487 104.382H28.3734L20.6487 35.03V104.382H0Z" fill="white"/>
    <path d="M80.1684 77.0862C80.1684 64.4154 84.8725 54.5585 94.2808 47.5154C89.296 39.5962 86.8037 32.0982 86.8037 25.0214C86.8037 17.5066 88.8009 11.4576 92.7952 6.87457C96.7896 2.29152 101.824 0 107.898 0C114.896 0 120.508 1.95453 124.734 5.86361C128.992 9.73898 131.122 15.7879 131.122 24.0105C131.122 27.1444 130.808 29.9752 130.181 32.5026C129.587 34.9963 128.547 37.4058 127.061 39.731C125.609 42.0562 124.321 43.8759 123.199 45.1902C122.109 46.5045 120.459 48.4084 118.247 50.9022L125.427 64.7524C127.144 59.7987 128.002 56.0918 128.002 53.6318H145.878C145.647 59.5965 144.623 65.3758 142.808 70.9698C140.992 76.5639 138.698 80.9616 135.925 84.163L146.819 104.382H124.882L121.565 97.9121C119.122 100.305 116.101 102.141 112.503 103.422C108.806 104.669 105.373 105.309 102.204 105.343C99.2655 105.343 96.6081 104.921 94.2312 104.079C91.8544 103.203 89.8902 102.007 88.3387 100.49C86.8202 98.9399 85.4832 97.255 84.3278 95.4352C83.2054 93.6155 82.3636 91.5936 81.8024 89.3694C81.2412 87.1453 80.8286 85.056 80.5645 83.1014C80.3004 81.1132 80.1684 79.1081 80.1684 77.0862ZM100.668 68.7963C99.4801 70.8182 98.8859 73.0929 98.8859 75.6203C98.8859 78.114 99.4966 80.2033 100.718 81.8883C101.939 83.5732 103.474 84.4157 105.323 84.4157C108.162 84.4157 110.77 83.3542 113.147 81.2311L104.234 64.7524C103.078 65.4264 101.89 66.7743 100.668 68.7963ZM103.838 22.1402C103.838 24.5328 104.399 26.858 105.521 29.1158L108.443 34.8278C109.565 33.8168 110.803 32.1487 112.156 29.8235C113.51 27.4646 114.187 25.0888 114.187 22.6962C114.187 18.8208 112.404 16.9 108.839 16.9337C105.505 16.9 103.838 18.6355 103.838 22.1402Z" fill="white"/>
    <path d="M147.858 53.379C147.858 52.7387 147.858 52.267 147.858 51.9637C147.858 51.7615 147.858 51.4413 147.858 51.0033C147.858 45.9821 147.858 42.2752 147.858 39.8826C147.891 37.4563 148.007 34.2549 148.205 30.2784C148.403 26.302 148.733 23.3533 149.195 21.4325C149.658 19.5117 150.301 17.1696 151.127 14.4063C151.952 11.643 153.008 9.62103 154.296 8.34047C155.583 7.05992 157.151 5.71196 159 4.29661C160.848 2.88125 163.06 1.92084 165.635 1.41535C168.21 0.90987 171.164 0.657128 174.499 0.657128C178.79 0.657128 182.487 1.23001 185.59 2.37577C188.694 3.48783 191.136 4.95374 192.919 6.77347C194.702 8.59321 196.105 10.9184 197.128 13.7491C198.184 16.5798 198.845 19.3263 199.109 21.9885C199.406 24.6507 199.554 27.7342 199.554 31.2389V38.6695H179.351V30.4806C179.351 28.8631 179.318 27.5825 179.252 26.639C179.219 25.6954 179.071 24.5159 178.807 23.1006C178.576 21.6852 178.13 20.6237 177.47 19.916C176.842 19.2084 176.034 18.8545 175.043 18.8545C172.402 18.8545 170.818 20.6237 170.29 24.1621C169.761 27.7005 169.497 36.9677 169.497 51.9637C169.497 67.1619 169.778 76.6313 170.339 80.3718C170.9 84.0787 172.468 85.9321 175.043 85.9321C176.76 85.9321 177.981 84.6179 178.708 81.9894C179.467 79.3609 179.846 74.9126 179.846 68.6446V60.9107H200V67.2798C200 92.5877 191.45 105.242 174.35 105.242C174.35 105.242 174.334 105.242 174.301 105.242C170.537 105.242 167.253 104.787 164.447 103.877C161.674 102.967 159.346 101.905 157.465 100.692C155.583 99.4454 154.015 97.4235 152.761 94.6265C151.506 91.8294 150.549 89.3694 149.889 87.2464C149.261 85.1234 148.766 81.8209 148.403 77.3389C148.073 72.857 147.891 69.2007 147.858 66.3699C147.858 63.5392 147.858 59.2089 147.858 53.379Z" fill="white"/>
    <path d="M0 155.735V154.138L11.0335 154.252V156.847C11.0335 158.33 11.2849 159.547 11.7877 160.497C12.2905 161.429 13.0261 161.894 13.9944 161.894C15.0745 161.894 15.9218 161.381 16.5363 160.354C16.9832 159.613 17.2067 158.815 17.2067 157.959C17.2067 157.636 17.1695 157.303 17.095 156.961C16.9646 155.973 16.7132 155.079 16.3408 154.281C15.987 153.482 15.4749 152.751 14.8045 152.085C14.1527 151.401 13.6592 150.935 13.324 150.688C13.0074 150.441 12.514 150.051 11.8436 149.519C4.00372 143.778 0.0558659 137.286 0 130.043C0 128.066 0.0931099 126.394 0.27933 125.025C0.465549 123.656 0.810056 122.487 1.31285 121.518C1.81564 120.548 2.25326 119.816 2.6257 119.322C3.01676 118.828 3.66853 118.134 4.58101 117.24C6.79702 114.864 9.93482 113.676 13.9944 113.676C16.2849 113.676 18.2682 113.961 19.9441 114.531C21.6201 115.102 22.9516 115.872 23.9385 116.841C24.9255 117.811 25.7076 119.056 26.2849 120.577C26.8622 122.097 27.2439 123.628 27.4302 125.167C27.6164 126.707 27.7095 128.523 27.7095 130.614H16.8994V128.333C16.8994 125.652 15.9777 124.293 14.1341 124.255C14.0968 124.255 14.0503 124.255 13.9944 124.255C13.175 124.255 12.5512 124.588 12.1229 125.253C11.676 125.861 11.4525 126.622 11.4525 127.534C11.4525 127.705 11.4525 127.867 11.4525 128.019C11.5642 129.616 11.9739 131.079 12.6816 132.41C13.4078 133.722 14.2924 134.862 15.3352 135.832C16.378 136.782 17.5419 137.733 18.8268 138.683C20.1117 139.615 21.3687 140.603 22.5978 141.649C23.8268 142.675 24.9441 143.806 25.9497 145.042C26.9553 146.259 27.7654 147.77 28.3799 149.576C28.9758 151.306 29.2737 153.235 29.2737 155.364C29.2737 155.44 29.2737 155.526 29.2737 155.621C29.1993 158.91 28.8361 161.666 28.1844 163.89C27.5326 166.095 26.527 167.835 25.1676 169.108C23.8082 170.382 22.1788 171.295 20.2793 171.846C18.3799 172.397 16.0428 172.673 13.2682 172.673C8.68715 172.673 5.32588 171.371 3.18436 168.766C1.06145 166.162 0 161.818 0 155.735Z" fill="white"/>
    <path d="M28.5196 172.188L39.3296 114.104H53.1844L63.6313 172.188H51.3408L50.0559 162.465H42.1508L40.838 172.188H28.5196ZM43.4078 150.004H48.743L46.2011 126.422H46.0894L43.4078 150.004Z" fill="white"/>
    <path d="M62.7654 172.188L73.5754 114.104H87.4302L97.8771 172.188H85.5866L84.3017 162.465H76.3966L75.0838 172.188H62.7654ZM77.6536 150.004H82.9888L80.4469 126.422H80.3352L77.6536 150.004Z" fill="white"/>
    <path d="M93.0168 127.477V114.104H120.894V127.477H112.821V172.188H101.089V127.477H93.0168Z" fill="white"/>
    <path d="M121.257 143.417C121.257 143.056 121.257 142.789 121.257 142.618C121.257 142.504 121.257 142.324 121.257 142.077C121.257 139.244 121.257 137.153 121.257 135.803C121.276 134.435 121.341 132.629 121.453 130.386C121.564 128.142 121.75 126.479 122.011 125.396C122.272 124.312 122.635 122.991 123.101 121.432C123.566 119.873 124.162 118.733 124.888 118.01C125.615 117.288 126.499 116.527 127.542 115.729C128.585 114.931 129.832 114.389 131.285 114.104C132.737 113.819 134.404 113.676 136.285 113.676C138.706 113.676 140.791 113.999 142.542 114.646C144.292 115.273 145.67 116.1 146.676 117.126C147.682 118.153 148.473 119.464 149.05 121.061C149.646 122.658 150.019 124.207 150.168 125.709C150.335 127.211 150.419 128.95 150.419 130.927V135.119H139.022V130.5C139.022 129.587 139.004 128.865 138.966 128.333C138.948 127.8 138.864 127.135 138.715 126.337C138.585 125.538 138.333 124.939 137.961 124.54C137.607 124.141 137.151 123.941 136.592 123.941C135.102 123.941 134.209 124.939 133.911 126.935C133.613 128.931 133.464 134.159 133.464 142.618C133.464 151.192 133.622 156.533 133.939 158.644C134.255 160.735 135.14 161.78 136.592 161.78C137.561 161.78 138.25 161.039 138.659 159.556C139.088 158.073 139.302 155.564 139.302 152.028V147.665H150.67V151.258C150.67 165.535 145.847 172.673 136.201 172.673C136.201 172.673 136.192 172.673 136.173 172.673C134.05 172.673 132.197 172.416 130.615 171.903C129.05 171.39 127.737 170.791 126.676 170.106C125.615 169.403 124.73 168.263 124.022 166.685C123.315 165.107 122.775 163.719 122.402 162.522C122.048 161.324 121.769 159.461 121.564 156.933C121.378 154.404 121.276 152.342 121.257 150.745C121.257 149.148 121.257 146.705 121.257 143.417Z" fill="white"/>
    <path d="M153.603 172.188V114.104H165.363V134.748H171.061V114.104H182.877V172.188H171.061V148.179H165.363V172.188H153.603Z" fill="white"/>
    <path d="M186.788 172.188V114.104H200V172.188H186.788Z" fill="white"/>
    <path d="M0 218.715V217.283L9.89231 217.385V219.712C9.89231 221.041 10.1177 222.132 10.5685 222.984C11.0193 223.819 11.6788 224.237 12.547 224.237C13.5153 224.237 14.275 223.777 14.8259 222.856C15.2266 222.192 15.427 221.476 15.427 220.709C15.427 220.419 15.3936 220.121 15.3268 219.814C15.21 218.928 14.9846 218.127 14.6506 217.411C14.3334 216.695 13.8743 216.039 13.2732 215.442C12.6889 214.829 12.2464 214.411 11.9459 214.19C11.6621 213.968 11.2196 213.619 10.6186 213.142C3.58962 207.994 0.0500877 202.174 0 195.68C0 193.908 0.0834794 192.408 0.250438 191.181C0.417397 189.954 0.726271 188.906 1.17706 188.036C1.62785 187.167 2.0202 186.511 2.35412 186.068C2.70473 185.625 3.28909 185.003 4.10719 184.202C6.094 182.071 8.90725 181.006 12.547 181.006C14.6006 181.006 16.3787 181.262 17.8813 181.773C19.3839 182.284 20.5777 182.975 21.4626 183.844C22.3474 184.713 23.0487 185.829 23.5662 187.193C24.0838 188.556 24.4261 189.928 24.593 191.309C24.76 192.689 24.8435 194.317 24.8435 196.192H15.1515V194.147C15.1515 191.743 14.3251 190.525 12.6722 190.491C12.6388 190.491 12.597 190.491 12.547 190.491C11.8123 190.491 11.253 190.789 10.869 191.386C10.4683 191.931 10.268 192.613 10.268 193.431C10.268 193.584 10.268 193.729 10.268 193.865C10.3681 195.297 10.7355 196.609 11.3699 197.802C12.021 198.978 12.8141 200.001 13.7491 200.87C14.684 201.722 15.7275 202.575 16.8795 203.427C18.0316 204.262 19.1585 205.148 20.2605 206.086C21.3624 207.006 22.3641 208.02 23.2657 209.128C24.1673 210.219 24.8936 211.574 25.4445 213.193C25.9788 214.744 26.2459 216.474 26.2459 218.382C26.2459 218.451 26.2459 218.527 26.2459 218.613C26.1791 221.561 25.8536 224.032 25.2692 226.027C24.6849 228.004 23.7833 229.563 22.5645 230.705C21.3457 231.847 19.8848 232.665 18.1818 233.159C16.4788 233.654 14.3835 233.901 11.8958 233.901C7.78863 233.901 4.77502 232.733 2.855 230.398C0.951665 228.063 0 224.169 0 218.715Z" fill="white"/>
    <path d="M28.4247 233.466V181.389H42.6496C47.4747 181.389 50.9391 182.71 53.0428 185.352C55.1465 187.977 56.1983 192.127 56.1983 197.802C56.1983 203.699 55.1215 207.926 52.9677 210.483C50.8306 213.022 47.2494 214.292 42.2239 214.292H39.8948V233.466H28.4247ZM39.8948 205.574H41.5728C42.7248 205.574 43.5345 204.969 44.002 203.759C44.4695 202.532 44.7032 200.649 44.7032 198.109C44.7032 195.382 44.4695 193.431 44.002 192.255C43.5679 191.045 42.7582 190.44 41.5728 190.44H39.8948V205.574Z" fill="white"/>
    <path d="M58.6777 233.466V181.389H81.8432V192.255H70.1478V201.279H80.9667V211.94H70.1478V222.371H82.1688V233.466H58.6777Z" fill="white"/>
    <path d="M84.9737 233.466V181.389H95.7926L103.481 210.15V181.389H113.924V233.466H102.83L95.417 206.137V233.466H84.9737Z" fill="white"/>
    <path d="M116.829 207.671C116.829 207.347 116.829 207.108 116.829 206.955C116.829 206.853 116.829 206.691 116.829 206.469C116.829 203.93 116.829 202.055 116.829 200.845C116.846 199.618 116.905 197.998 117.005 195.987C117.105 193.976 117.272 192.485 117.506 191.513C117.739 190.542 118.065 189.357 118.482 187.96C118.9 186.562 119.434 185.54 120.085 184.892C120.736 184.244 121.529 183.563 122.464 182.847C123.399 182.131 124.518 181.645 125.82 181.389C127.122 181.134 128.617 181.006 130.303 181.006C132.473 181.006 134.343 181.296 135.913 181.875C137.482 182.438 138.718 183.179 139.619 184.099C140.521 185.02 141.23 186.196 141.748 187.627C142.282 189.059 142.616 190.448 142.75 191.795C142.9 193.141 142.975 194.7 142.975 196.473V200.231H132.757V196.09C132.757 195.271 132.741 194.624 132.707 194.147C132.691 193.669 132.615 193.073 132.482 192.357C132.365 191.641 132.14 191.104 131.806 190.746C131.488 190.388 131.079 190.209 130.579 190.209C129.243 190.209 128.441 191.104 128.174 192.894C127.907 194.683 127.774 199.37 127.774 206.955C127.774 214.641 127.916 219.431 128.199 221.323C128.483 223.197 129.276 224.135 130.579 224.135C131.447 224.135 132.064 223.47 132.432 222.141C132.816 220.811 133.008 218.561 133.008 215.391V211.48H143.201V214.701C143.201 227.501 138.876 233.901 130.228 233.901C130.228 233.901 130.22 233.901 130.203 233.901C128.3 233.901 126.638 233.671 125.219 233.21C123.817 232.75 122.64 232.213 121.688 231.6C120.736 230.969 119.943 229.947 119.309 228.532C118.674 227.117 118.19 225.873 117.856 224.799C117.539 223.726 117.289 222.055 117.105 219.789C116.938 217.522 116.846 215.673 116.829 214.241C116.829 212.809 116.829 210.619 116.829 207.671Z" fill="white"/>
    <path d="M145.83 233.466V181.389H168.996V192.255H157.3V201.279H168.119V211.94H157.3V222.371H169.321V233.466H145.83Z" fill="white"/>
    <path d="M172.126 233.466V181.389H186.251C191.193 181.389 194.699 182.523 196.769 184.79C198.84 187.039 199.875 190.934 199.875 196.473C199.875 199.967 199.366 202.583 198.347 204.322C197.345 206.043 195.392 207.159 192.487 207.671C195.409 208.335 197.387 209.605 198.422 211.48C199.474 213.355 200 216.048 200 219.558V233.466H187.779V219.38C187.779 216.772 187.511 214.982 186.977 214.011C186.46 213.022 185.458 212.528 183.972 212.528H183.596V233.466H172.126ZM183.596 203.376H185.174C186.359 203.376 187.186 202.898 187.653 201.944C188.121 201.058 188.355 199.413 188.355 197.01C188.355 194.436 188.129 192.698 187.678 191.795C187.228 190.891 186.393 190.44 185.174 190.44H183.596V203.376Z" fill="white"/>
</svg>
